<svg xmlns="http://www.w3.org/2000/svg" viewBox="0 0 643 131">
   <g id="areas" fill="#ccc">
      <g class="area" shortid="0_0" areaname="流体実験室">
         <polygon vector-effect="non-scaling-stroke" points="0,0 160,0 160,65 0,65"/>
         <g class="wrap" transform="translate(0,0)" width="160" height="65"/>
      </g>
      <g class="area" shortid="253_0" areaname="X線室">
         <polygon vector-effect="non-scaling-stroke" points="253,0 282,0 282,65 253,65"/>
         <g class="wrap"
            transform="translate(253,0)"
            width="29"
            height="65"/>
      </g>
      <g class="area" shortid="282_0" areaname="電子顕微鏡室">
         <polygon vector-effect="non-scaling-stroke" points="282,0 341,0 341,65 282,65"/>
         <g class="wrap"
            transform="translate(282,0)"
            width="59"
            height="65"/>
      </g>
      <g class="area" shortid="341_0" areaname="機械工学科第7準備室">
         <polygon vector-effect="non-scaling-stroke" points="341,0 380,0 380,65 341,65"/>
         <g class="wrap"
            transform="translate(341,0)"
            width="39"
            height="65"/>
      </g>
      <g class="area" shortid="380_0" areaname="機械材料実験室">
         <polygon vector-effect="non-scaling-stroke" points="380,0 473,0 473,65 380,65"/>
         <g class="wrap"
            transform="translate(380,0)"
            width="93"
            height="65"/>
      </g>
      <g class="area" shortid="473_0" areaname="電力実験室">
         <polygon vector-effect="non-scaling-stroke" points="473,0 615,0 615,65 473,65"/>
         <g class="wrap"
            transform="translate(473,0)"
            width="142"
            height="65"/>
      </g>
      <g class="area" shortid="0_65" areaname="水理実験室">
         <polygon vector-effect="non-scaling-stroke" points="0,65 130,65 130,131 0,131"/>
         <g class="wrap"
            transform="translate(0,65)"
            width="130"
            height="66"/>
      </g>
      <g class="area" shortid="130_85" areaname="水理準備室">
         <polygon vector-effect="non-scaling-stroke"
                  points="130,85 160,85 160,131 130,131"/>
         <g class="wrap"
            transform="translate(130,85)"
            width="30"
            height="46"/>
      </g>
      <g class="area" shortid="160_85" areaname="多目的トイレ">
         <polygon vector-effect="non-scaling-stroke"
                  points="160,85 199,85 199,104 160,104"/>
         <g class="wrap"
            transform="translate(160,85)"
            width="39"
            height="19"/>
      </g>
      <g class="area" shortid="282_85" areaname="測量準備室">
         <polygon vector-effect="non-scaling-stroke"
                  points="282,85 341,85 341,131 282,131"/>
         <g class="wrap"
            transform="translate(282,85)"
            width="59"
            height="46"/>
      </g>
      <g class="area" shortid="341_85" areaname="測量実験室">
         <polygon vector-effect="non-scaling-stroke"
                  points="341,85 444,85 444,131 341,131"/>
         <g class="wrap"
            transform="translate(341,85)"
            width="103"
            height="46"/>
      </g>
      <g class="area" shortid="444_85" areaname="柏木教員室">
         <polygon vector-effect="non-scaling-stroke"
                  points="444,85 473,85 473,131 444,131"/>
         <g class="wrap"
            transform="translate(444,85)"
            width="29"
            height="46"/>
      </g>
      <g class="area" shortid="473_85" areaname="電力準備室">
         <polygon vector-effect="non-scaling-stroke"
                  points="473,85 532,85 532,131 473,131"/>
         <g class="wrap"
            transform="translate(473,85)"
            width="59"
            height="46"/>
      </g>
      <g class="area" shortid="532_85" areaname="高電圧実験室">
         <polygon vector-effect="non-scaling-stroke"
                  points="532,85 615,85 615,131 532,131"/>
         <g class="wrap"
            transform="translate(532,85)"
            width="83"
            height="46"/>
      </g>
      <g class="area" shortid="160_104" areaname="男子トイレ">
         <polygon vector-effect="non-scaling-stroke"
                  points="160,104 199,104 199,85 223,85 223,131 160,131"/>
         <g class="wrap"
            transform="translate(160,104)"
            width="63"
            height="27"/>
      </g>
   </g>
   <g id="lines" stroke="#000">
      <line vector-effect="non-scaling-stroke"
            x1="0"
            y1="0"
            x2="160"
            y2="0"/>
      <line vector-effect="non-scaling-stroke"
            x1="160"
            y1="0"
            x2="223"
            y2="0"/>
      <line vector-effect="non-scaling-stroke"
            x1="223"
            y1="0"
            x2="253"
            y2="0"/>
      <line vector-effect="non-scaling-stroke"
            x1="253"
            y1="0"
            x2="282"
            y2="0"/>
      <line vector-effect="non-scaling-stroke"
            x1="282"
            y1="0"
            x2="341"
            y2="0"/>
      <line vector-effect="non-scaling-stroke"
            x1="341"
            y1="0"
            x2="380"
            y2="0"/>
      <line vector-effect="non-scaling-stroke"
            x1="380"
            y1="0"
            x2="473"
            y2="0"/>
      <line vector-effect="non-scaling-stroke"
            x1="473"
            y1="0"
            x2="615"
            y2="0"/>
      <line vector-effect="non-scaling-stroke"
            x1="160"
            y1="15"
            x2="204"
            y2="15"/>
      <line vector-effect="non-scaling-stroke"
            x1="0"
            y1="65"
            x2="130"
            y2="65"/>
      <line vector-effect="non-scaling-stroke"
            x1="130"
            y1="65"
            x2="160"
            y2="65"/>
      <line vector-effect="non-scaling-stroke"
            x1="253"
            y1="65"
            x2="282"
            y2="65"/>
      <line vector-effect="non-scaling-stroke"
            x1="282"
            y1="65"
            x2="341"
            y2="65"/>
      <line vector-effect="non-scaling-stroke"
            x1="341"
            y1="65"
            x2="380"
            y2="65"/>
      <line vector-effect="non-scaling-stroke"
            x1="380"
            y1="65"
            x2="473"
            y2="65"/>
      <line vector-effect="non-scaling-stroke"
            x1="473"
            y1="65"
            x2="615"
            y2="65"/>
      <line vector-effect="non-scaling-stroke"
            x1="615"
            y1="65"
            x2="643"
            y2="65"/>
      <line vector-effect="non-scaling-stroke"
            x1="130"
            y1="85"
            x2="160"
            y2="85"/>
      <line vector-effect="non-scaling-stroke"
            x1="160"
            y1="85"
            x2="199"
            y2="85"/>
      <line vector-effect="non-scaling-stroke"
            x1="199"
            y1="85"
            x2="223"
            y2="85"/>
      <line vector-effect="non-scaling-stroke"
            x1="282"
            y1="85"
            x2="341"
            y2="85"/>
      <line vector-effect="non-scaling-stroke"
            x1="341"
            y1="85"
            x2="444"
            y2="85"/>
      <line vector-effect="non-scaling-stroke"
            x1="444"
            y1="85"
            x2="473"
            y2="85"/>
      <line vector-effect="non-scaling-stroke"
            x1="473"
            y1="85"
            x2="532"
            y2="85"/>
      <line vector-effect="non-scaling-stroke"
            x1="532"
            y1="85"
            x2="615"
            y2="85"/>
      <line vector-effect="non-scaling-stroke"
            x1="615"
            y1="85"
            x2="643"
            y2="85"/>
      <line vector-effect="non-scaling-stroke"
            x1="253"
            y1="100"
            x2="282"
            y2="100"/>
      <line vector-effect="non-scaling-stroke"
            x1="160"
            y1="104"
            x2="199"
            y2="104"/>
      <line vector-effect="non-scaling-stroke"
            x1="0"
            y1="131"
            x2="130"
            y2="131"/>
      <line vector-effect="non-scaling-stroke"
            x1="130"
            y1="131"
            x2="160"
            y2="131"/>
      <line vector-effect="non-scaling-stroke"
            x1="160"
            y1="131"
            x2="223"
            y2="131"/>
      <line vector-effect="non-scaling-stroke"
            x1="223"
            y1="131"
            x2="253"
            y2="131"/>
      <line vector-effect="non-scaling-stroke"
            x1="253"
            y1="131"
            x2="282"
            y2="131"/>
      <line vector-effect="non-scaling-stroke"
            x1="282"
            y1="131"
            x2="341"
            y2="131"/>
      <line vector-effect="non-scaling-stroke"
            x1="341"
            y1="131"
            x2="444"
            y2="131"/>
      <line vector-effect="non-scaling-stroke"
            x1="444"
            y1="131"
            x2="473"
            y2="131"/>
      <line vector-effect="non-scaling-stroke"
            x1="473"
            y1="131"
            x2="532"
            y2="131"/>
      <line vector-effect="non-scaling-stroke"
            x1="532"
            y1="131"
            x2="615"
            y2="131"/>
      <line vector-effect="non-scaling-stroke"
            x1="0"
            y1="0"
            x2="0"
            y2="65"/>
      <line vector-effect="non-scaling-stroke"
            x1="0"
            y1="65"
            x2="0"
            y2="131"/>
      <line vector-effect="non-scaling-stroke"
            x1="130"
            y1="65"
            x2="130"
            y2="85"/>
      <line vector-effect="non-scaling-stroke"
            x1="130"
            y1="85"
            x2="130"
            y2="131"/>
      <line vector-effect="non-scaling-stroke"
            x1="160"
            y1="0"
            x2="160"
            y2="15"/>
      <line vector-effect="non-scaling-stroke"
            x1="160"
            y1="15"
            x2="160"
            y2="65"/>
      <line vector-effect="non-scaling-stroke"
            x1="160"
            y1="85"
            x2="160"
            y2="104"/>
      <line vector-effect="non-scaling-stroke"
            x1="160"
            y1="104"
            x2="160"
            y2="131"/>
      <line vector-effect="non-scaling-stroke"
            x1="199"
            y1="85"
            x2="199"
            y2="104"/>
      <line vector-effect="non-scaling-stroke"
            x1="204"
            y1="15"
            x2="204"
            y2="60"/>
      <line vector-effect="non-scaling-stroke"
            x1="223"
            y1="0"
            x2="223"
            y2="60"/>
      <line vector-effect="non-scaling-stroke"
            x1="223"
            y1="85"
            x2="223"
            y2="131"/>
      <line vector-effect="non-scaling-stroke"
            x1="253"
            y1="0"
            x2="253"
            y2="65"/>
      <line vector-effect="non-scaling-stroke"
            x1="253"
            y1="100"
            x2="253"
            y2="131"/>
      <line vector-effect="non-scaling-stroke"
            x1="282"
            y1="0"
            x2="282"
            y2="65"/>
      <line vector-effect="non-scaling-stroke"
            x1="282"
            y1="85"
            x2="282"
            y2="100"/>
      <line vector-effect="non-scaling-stroke"
            x1="282"
            y1="100"
            x2="282"
            y2="131"/>
      <line vector-effect="non-scaling-stroke"
            x1="341"
            y1="0"
            x2="341"
            y2="65"/>
      <line vector-effect="non-scaling-stroke"
            x1="341"
            y1="85"
            x2="341"
            y2="131"/>
      <line vector-effect="non-scaling-stroke"
            x1="380"
            y1="0"
            x2="380"
            y2="65"/>
      <line vector-effect="non-scaling-stroke"
            x1="444"
            y1="85"
            x2="444"
            y2="131"/>
      <line vector-effect="non-scaling-stroke"
            x1="473"
            y1="0"
            x2="473"
            y2="65"/>
      <line vector-effect="non-scaling-stroke"
            x1="473"
            y1="85"
            x2="473"
            y2="131"/>
      <line vector-effect="non-scaling-stroke"
            x1="532"
            y1="85"
            x2="532"
            y2="131"/>
      <line vector-effect="non-scaling-stroke"
            x1="615"
            y1="0"
            x2="615"
            y2="65"/>
      <line vector-effect="non-scaling-stroke"
            x1="615"
            y1="65"
            x2="615"
            y2="85"/>
      <line vector-effect="non-scaling-stroke"
            x1="615"
            y1="85"
            x2="615"
            y2="131"/>
      <line vector-effect="non-scaling-stroke"
            x1="643"
            y1="65"
            x2="643"
            y2="85"/>
   </g>
   <g id="decorations" fill="none" stroke="#000">
      <line vector-effect="non-scaling-stroke"
            x1="204"
            y1="21"
            x2="223"
            y2="21"/>
      <line vector-effect="non-scaling-stroke"
            x1="204"
            y1="25"
            x2="223"
            y2="25"/>
      <line vector-effect="non-scaling-stroke"
            x1="204"
            y1="29"
            x2="223"
            y2="29"/>
      <line vector-effect="non-scaling-stroke"
            x1="204"
            y1="33"
            x2="223"
            y2="33"/>
      <line vector-effect="non-scaling-stroke"
            x1="204"
            y1="37"
            x2="223"
            y2="37"/>
      <line vector-effect="non-scaling-stroke"
            x1="204"
            y1="41"
            x2="223"
            y2="41"/>
      <line vector-effect="non-scaling-stroke"
            x1="204"
            y1="45"
            x2="223"
            y2="45"/>
      <line vector-effect="non-scaling-stroke"
            x1="253"
            y1="100"
            x2="282"
            y2="131"/>
      <line vector-effect="non-scaling-stroke"
            x1="253"
            y1="131"
            x2="282"
            y2="100"/>
      <line vector-effect="non-scaling-stroke"
            x1="615"
            y1="75"
            x2="640"
            y2="75"/>
      <line vector-effect="non-scaling-stroke"
            x1="621"
            y1="65"
            x2="621"
            y2="75"/>
      <line vector-effect="non-scaling-stroke"
            x1="625"
            y1="65"
            x2="625"
            y2="75"/>
      <line vector-effect="non-scaling-stroke"
            x1="629"
            y1="65"
            x2="629"
            y2="75"/>
      <line vector-effect="non-scaling-stroke"
            x1="633"
            y1="65"
            x2="633"
            y2="75"/>
      <line vector-effect="non-scaling-stroke"
            x1="637"
            y1="65"
            x2="637"
            y2="75"/>
   </g>
</svg>
