<svg xmlns="http://www.w3.org/2000/svg" viewBox="0 0 643 131">
   <g id="areas" fill="#ccc">
      <g class="area" shortid="0_0" areaname="CAD室">
         <polygon points="0,0 66,0 66,131 0,131"/>
         <g class="wrap" transform="translate(0,0)" width="66" height="131"/>
      </g>
      <g class="area" shortid="66_0" areaname="コンピューター工学実験室">
         <polygon points="66,0 130,0 130,65 66,65"/>
         <g class="wrap" transform="translate(66,0)" width="64" height="65"/>
      </g>
      <g class="area" shortid="130_0" areaname="コンピュータ工学準備室">
         <polygon points="130,0 160,0 160,65 130,65"/>
         <g class="wrap"
            transform="translate(130,0)"
            width="30"
            height="65"/>
      </g>
      <g class="area" shortid="223_0" areaname="原田教員室">
         <polygon points="223,0 253,0 253,65 223,65"/>
         <g class="wrap"
            transform="translate(223,0)"
            width="30"
            height="65"/>
      </g>
      <g class="area" shortid="253_0" areaname="オープンラボB">
         <polygon points="253,0 331,0 331,65 253,65"/>
         <g class="wrap"
            transform="translate(253,0)"
            width="78"
            height="65"/>
      </g>
      <g class="area" shortid="331_0" areaname="コミュニティルームC">
         <polygon points="331,0 390,0 390,65 331,65"/>
         <g class="wrap"
            transform="translate(331,0)"
            width="59"
            height="65"/>
      </g>
      <g class="area" shortid="390_0" areaname="衛生工学分析準備室">
         <polygon points="390,0 419,0 419,65 390,65"/>
         <g class="wrap"
            transform="translate(390,0)"
            width="29"
            height="65"/>
      </g>
      <g class="area" shortid="419_0" areaname="衛生工学分析室">
         <polygon points="419,0 498,0 498,65 419,65"/>
         <g class="wrap"
            transform="translate(419,0)"
            width="79"
            height="65"/>
      </g>
      <g class="area" shortid="498_0" areaname="精密実験室">
         <polygon points="498,0 527,0 527,65 498,65"/>
         <g class="wrap"
            transform="translate(498,0)"
            width="29"
            height="65"/>
      </g>
      <g class="area" shortid="527_0" areaname="衛生工学装置実験室">
         <polygon points="527,0 615,0 615,65 527,65"/>
         <g class="wrap"
            transform="translate(527,0)"
            width="88"
            height="65"/>
      </g>
      <g class="area" shortid="66_85" areaname="浅野教員室">
         <polygon points="66,85 91,85 91,131 66,131"/>
         <g class="wrap"
            transform="translate(66,85)"
            width="25"
            height="46"/>
      </g>
      <g class="area" shortid="91_85" areaname="飯田教員室">
         <polygon points="91,85 121,85 121,131 91,131"/>
         <g class="wrap"
            transform="translate(91,85)"
            width="30"
            height="46"/>
      </g>
      <g class="area" shortid="121_85" areaname="専攻科ゼミ室A">
         <polygon points="121,85 160,85 160,131 121,131"/>
         <g class="wrap"
            transform="translate(121,85)"
            width="39"
            height="46"/>
      </g>
      <g class="area" shortid="189_85" areaname="男子トイレ">
         <polygon points="189,85 223,85 223,131 189,131"/>
         <g class="wrap"
            transform="translate(189,85)"
            width="34"
            height="46"/>
      </g>
      <g class="area" shortid="282_85" areaname="大久保教員室">
         <polygon points="282,85 312,85 312,131 282,131"/>
         <g class="wrap"
            transform="translate(282,85)"
            width="30"
            height="46"/>
      </g>
      <g class="area" shortid="312_85" areaname="虻川教員室">
         <polygon points="312,85 341,85 341,131 312,131"/>
         <g class="wrap"
            transform="translate(312,85)"
            width="29"
            height="46"/>
      </g>
      <g class="area" shortid="341_85" areaname="湯谷教員室">
         <polygon points="341,85 370,85 370,131 341,131"/>
         <g class="wrap"
            transform="translate(341,85)"
            width="29"
            height="46"/>
      </g>
      <g class="area" shortid="370_85" areaname="青木教員室">
         <polygon points="370,85 400,85 400,131 370,131"/>
         <g class="wrap"
            transform="translate(370,85)"
            width="30"
            height="46"/>
      </g>
      <g class="area" shortid="400_85" areaname="鬼塚教員室">
         <polygon points="400,85 429,85 429,131 400,131"/>
         <g class="wrap"
            transform="translate(400,85)"
            width="29"
            height="46"/>
      </g>
      <g class="area" shortid="429_85" areaname="上村教員室">
         <polygon points="429,85 459,85 459,131 429,131"/>
         <g class="wrap"
            transform="translate(429,85)"
            width="30"
            height="46"/>
      </g>
      <g class="area" shortid="459_85" areaname="島﨑教員室">
         <polygon points="459,85 488,85 488,131 459,131"/>
         <g class="wrap"
            transform="translate(459,85)"
            width="29"
            height="46"/>
      </g>
      <g class="area" shortid="488_85" areaname="環境工学実験室(C)">
         <polygon points="488,85 517,85 517,131 488,131"/>
         <g class="wrap"
            transform="translate(488,85)"
            width="29"
            height="46"/>
      </g>
      <g class="area" shortid="517_85" areaname="環境工学実験室(B)">
         <polygon points="517,85 547,85 547,131 517,131"/>
         <g class="wrap"
            transform="translate(517,85)"
            width="30"
            height="46"/>
      </g>
      <g class="area" shortid="547_85" areaname="環境工学実験室(A)">
         <polygon points="547,85 615,85 615,131 547,131"/>
         <g class="wrap"
            transform="translate(547,85)"
            width="68"
            height="46"/>
      </g>
      <g class="area" shortid="160_104" areaname="女子トイレ">
         <polygon points="160,104 189,104 189,131 160,131"/>
         <g class="wrap"
            transform="translate(160,104)"
            width="29"
            height="27"/>
      </g>
   </g>
   <g id="lines" stroke="#000">
      <line x1="0" y1="0" x2="66" y2="0"/>
      <line x1="66" y1="0" x2="130" y2="0"/>
      <line x1="130" y1="0" x2="160" y2="0"/>
      <line x1="160" y1="0" x2="223" y2="0"/>
      <line x1="223" y1="0" x2="253" y2="0"/>
      <line x1="253" y1="0" x2="331" y2="0"/>
      <line x1="331" y1="0" x2="390" y2="0"/>
      <line x1="390" y1="0" x2="419" y2="0"/>
      <line x1="419" y1="0" x2="498" y2="0"/>
      <line x1="498" y1="0" x2="527" y2="0"/>
      <line x1="527" y1="0" x2="615" y2="0"/>
      <line x1="178" y1="15" x2="204" y2="15"/>
      <line x1="178" y1="51" x2="204" y2="51"/>
      <line x1="66" y1="65" x2="130" y2="65"/>
      <line x1="130" y1="65" x2="160" y2="65"/>
      <line x1="223" y1="65" x2="253" y2="65"/>
      <line x1="253" y1="65" x2="331" y2="65"/>
      <line x1="331" y1="65" x2="390" y2="65"/>
      <line x1="390" y1="65" x2="419" y2="65"/>
      <line x1="419" y1="65" x2="498" y2="65"/>
      <line x1="498" y1="65" x2="527" y2="65"/>
      <line x1="527" y1="65" x2="615" y2="65"/>
      <line x1="615" y1="65" x2="643" y2="65"/>
      <line x1="66" y1="85" x2="91" y2="85"/>
      <line x1="91" y1="85" x2="121" y2="85"/>
      <line x1="121" y1="85" x2="160" y2="85"/>
      <line x1="189" y1="85" x2="223" y2="85"/>
      <line x1="282" y1="85" x2="312" y2="85"/>
      <line x1="312" y1="85" x2="341" y2="85"/>
      <line x1="341" y1="85" x2="370" y2="85"/>
      <line x1="370" y1="85" x2="400" y2="85"/>
      <line x1="400" y1="85" x2="429" y2="85"/>
      <line x1="429" y1="85" x2="459" y2="85"/>
      <line x1="459" y1="85" x2="488" y2="85"/>
      <line x1="488" y1="85" x2="517" y2="85"/>
      <line x1="517" y1="85" x2="547" y2="85"/>
      <line x1="547" y1="85" x2="615" y2="85"/>
      <line x1="615" y1="85" x2="643" y2="85"/>
      <line x1="253" y1="100" x2="282" y2="100"/>
      <line x1="160" y1="104" x2="189" y2="104"/>
      <line x1="0" y1="131" x2="66" y2="131"/>
      <line x1="66" y1="131" x2="91" y2="131"/>
      <line x1="91" y1="131" x2="121" y2="131"/>
      <line x1="121" y1="131" x2="160" y2="131"/>
      <line x1="160" y1="131" x2="189" y2="131"/>
      <line x1="189" y1="131" x2="223" y2="131"/>
      <line x1="223" y1="131" x2="253" y2="131"/>
      <line x1="253" y1="131" x2="282" y2="131"/>
      <line x1="282" y1="131" x2="312" y2="131"/>
      <line x1="312" y1="131" x2="341" y2="131"/>
      <line x1="341" y1="131" x2="370" y2="131"/>
      <line x1="370" y1="131" x2="400" y2="131"/>
      <line x1="400" y1="131" x2="429" y2="131"/>
      <line x1="429" y1="131" x2="459" y2="131"/>
      <line x1="459" y1="131" x2="488" y2="131"/>
      <line x1="488" y1="131" x2="517" y2="131"/>
      <line x1="517" y1="131" x2="547" y2="131"/>
      <line x1="547" y1="131" x2="615" y2="131"/>
      <line x1="0" y1="0" x2="0" y2="131"/>
      <line x1="66" y1="0" x2="66" y2="65"/>
      <line x1="66" y1="65" x2="66" y2="85"/>
      <line x1="66" y1="85" x2="66" y2="131"/>
      <line x1="91" y1="85" x2="91" y2="131"/>
      <line x1="121" y1="85" x2="121" y2="131"/>
      <line x1="130" y1="0" x2="130" y2="65"/>
      <line x1="160" y1="0" x2="160" y2="65"/>
      <line x1="160" y1="85" x2="160" y2="104"/>
      <line x1="160" y1="104" x2="160" y2="131"/>
      <line x1="178" y1="15" x2="178" y2="51"/>
      <line x1="189" y1="85" x2="189" y2="104"/>
      <line x1="189" y1="104" x2="189" y2="131"/>
      <line x1="204" y1="15" x2="204" y2="51"/>
      <line x1="223" y1="0" x2="223" y2="65"/>
      <line x1="223" y1="85" x2="223" y2="131"/>
      <line x1="253" y1="0" x2="253" y2="65"/>
      <line x1="253" y1="100" x2="253" y2="131"/>
      <line x1="282" y1="85" x2="282" y2="100"/>
      <line x1="282" y1="100" x2="282" y2="131"/>
      <line x1="312" y1="85" x2="312" y2="131"/>
      <line x1="331" y1="0" x2="331" y2="65"/>
      <line x1="341" y1="85" x2="341" y2="131"/>
      <line x1="370" y1="85" x2="370" y2="131"/>
      <line x1="390" y1="0" x2="390" y2="65"/>
      <line x1="400" y1="85" x2="400" y2="131"/>
      <line x1="419" y1="0" x2="419" y2="65"/>
      <line x1="429" y1="85" x2="429" y2="131"/>
      <line x1="459" y1="85" x2="459" y2="131"/>
      <line x1="488" y1="85" x2="488" y2="131"/>
      <line x1="498" y1="0" x2="498" y2="65"/>
      <line x1="517" y1="85" x2="517" y2="131"/>
      <line x1="527" y1="0" x2="527" y2="65"/>
      <line x1="547" y1="85" x2="547" y2="131"/>
      <line x1="615" y1="0" x2="615" y2="65"/>
      <line x1="615" y1="65" x2="615" y2="85"/>
      <line x1="615" y1="85" x2="615" y2="131"/>
      <line x1="643" y1="65" x2="643" y2="85"/>
   </g>
   <g id="decorations" fill="none" stroke="#000">
      <line x1="160" y1="21" x2="178" y2="21"/>
      <line x1="160" y1="25" x2="178" y2="25"/>
      <line x1="160" y1="29" x2="178" y2="29"/>
      <line x1="160" y1="33" x2="178" y2="33"/>
      <line x1="160" y1="37" x2="178" y2="37"/>
      <line x1="160" y1="41" x2="178" y2="41"/>
      <line x1="160" y1="45" x2="178" y2="45"/>
      <line x1="204" y1="21" x2="223" y2="21"/>
      <line x1="204" y1="25" x2="223" y2="25"/>
      <line x1="204" y1="29" x2="223" y2="29"/>
      <line x1="204" y1="33" x2="223" y2="33"/>
      <line x1="204" y1="37" x2="223" y2="37"/>
      <line x1="204" y1="41" x2="223" y2="41"/>
      <line x1="204" y1="45" x2="223" y2="45"/>
      <line x1="253" y1="100" x2="282" y2="131"/>
      <line x1="253" y1="131" x2="282" y2="100"/>
      <line x1="615" y1="75" x2="640" y2="75"/>
      <line x1="621" y1="65" x2="621" y2="85"/>
      <line x1="625" y1="65" x2="625" y2="85"/>
      <line x1="629" y1="65" x2="629" y2="85"/>
      <line x1="633" y1="65" x2="633" y2="85"/>
      <line x1="637" y1="65" x2="637" y2="85"/>
   </g>
</svg>
