<svg xmlns="http://www.w3.org/2000/svg" viewBox="0 0 417 238">
   <g id="areas" fill="#ccc">
      <g class="area" shortid="27_0" areaname="第1講義室">
         <polygon points="27,0 105,0 105,154 27,154"/>
         <g class="wrap"
            transform="translate(27,0)"
            width="78"
            height="154"/>
      </g>
      <g class="area" shortid="209_0" areaname="男子トイレ">
         <polygon points="209,0 261,0 261,22 236,22 236,60 231,60 231,20 209,20"/>
         <g class="wrap"
            transform="translate(209,0)"
            width="52"
            height="22"/>
      </g>
      <g class="area" shortid="209_20" areaname="多目的トイレ">
         <polygon points="209,20 231,20 231,60 209,60"/>
         <g class="wrap"
            transform="translate(209,20)"
            width="22"
            height="40"/>
      </g>
      <g class="area" shortid="236_22" areaname="女子トイレ">
         <polygon points="236,22 261,22 261,60 236,60"/>
         <g class="wrap"
            transform="translate(236,22)"
            width="25"
            height="38"/>
      </g>
   </g>
   <g id="lines" stroke="#000">
      <line x1="27" y1="0" x2="105" y2="0"/>
      <line x1="105" y1="0" x2="183" y2="0"/>
      <line x1="183" y1="0" x2="209" y2="0"/>
      <line x1="209" y1="0" x2="261" y2="0"/>
      <line x1="183" y1="16" x2="209" y2="16"/>
      <line x1="209" y1="20" x2="231" y2="20"/>
      <line x1="236" y1="22" x2="261" y2="22"/>
      <line x1="183" y1="60" x2="209" y2="60"/>
      <line x1="209" y1="60" x2="231" y2="60"/>
      <line x1="236" y1="60" x2="261" y2="60"/>
      <line x1="0" y1="71" x2="27" y2="71"/>
      <line x1="0" y1="86" x2="27" y2="86"/>
      <line x1="261" y1="86" x2="339" y2="86"/>
      <line x1="339" y1="86" x2="376" y2="86"/>
      <line x1="376" y1="86" x2="417" y2="86"/>
      <line x1="324" y1="124" x2="339" y2="124"/>
      <line x1="0" y1="133" x2="27" y2="133"/>
      <line x1="261" y1="135" x2="324" y2="135"/>
      <line x1="27" y1="154" x2="105" y2="154"/>
      <line x1="105" y1="154" x2="183" y2="154"/>
      <line x1="261" y1="154" x2="308" y2="154"/>
      <line x1="261" y1="165" x2="308" y2="165"/>
      <line x1="308" y1="165" x2="339" y2="165"/>
      <line x1="339" y1="165" x2="376" y2="165"/>
      <line x1="214" y1="196" x2="261" y2="196"/>
      <line x1="261" y1="238" x2="376" y2="238"/>
      <line x1="376" y1="238" x2="417" y2="238"/>
      <line x1="0" y1="71" x2="0" y2="86"/>
      <line x1="0" y1="86" x2="0" y2="133"/>
      <line x1="27" y1="0" x2="27" y2="71"/>
      <line x1="27" y1="71" x2="27" y2="86"/>
      <line x1="27" y1="86" x2="27" y2="133"/>
      <line x1="27" y1="133" x2="27" y2="154"/>
      <line x1="105" y1="0" x2="105" y2="154"/>
      <line x1="183" y1="0" x2="183" y2="16"/>
      <line x1="183" y1="16" x2="183" y2="60"/>
      <line x1="183" y1="60" x2="183" y2="154"/>
      <line x1="183" y1="154" x2="183" y2="170"/>
      <line x1="209" y1="0" x2="209" y2="16"/>
      <line x1="209" y1="16" x2="209" y2="20"/>
      <line x1="209" y1="20" x2="209" y2="60"/>
      <line x1="231" y1="20" x2="231" y2="60"/>
      <line x1="236" y1="22" x2="236" y2="60"/>
      <line x1="261" y1="0" x2="261" y2="22"/>
      <line x1="261" y1="22" x2="261" y2="60"/>
      <line x1="261" y1="60" x2="261" y2="86"/>
      <line x1="261" y1="86" x2="261" y2="135"/>
      <line x1="261" y1="154" x2="261" y2="165"/>
      <line x1="261" y1="165" x2="261" y2="196"/>
      <line x1="261" y1="196" x2="261" y2="238"/>
      <line x1="308" y1="135" x2="308" y2="154"/>
      <line x1="308" y1="154" x2="308" y2="165"/>
      <line x1="324" y1="124" x2="324" y2="135"/>
      <line x1="339" y1="86" x2="339" y2="124"/>
      <line x1="339" y1="124" x2="339" y2="165"/>
      <line x1="376" y1="86" x2="376" y2="165"/>
      <line x1="376" y1="165" x2="376" y2="238"/>
      <line x1="417" y1="86" x2="417" y2="238"/>
      <line x1="183" y1="170" x2="214" y2="196"/>
   </g>
   <g id="decorations" fill="none" stroke="#000">
      <line x1="0" y1="91.875 " x2="27" y2="91.875 "/>
      <line x1="0" y1="97.75  " x2="27" y2="97.75  "/>
      <line x1="0" y1="103.625" x2="27" y2="103.625"/>
      <line x1="0" y1="109.5  " x2="27" y2="109.5  "/>
      <line x1="0" y1="115.375" x2="27" y2="115.375"/>
      <line x1="0" y1="121.25 " x2="27" y2="121.25 "/>
      <line x1="0" y1="127.125" x2="27" y2="127.125"/>
      <line x1="183" y1="22.285" x2="209" y2="22.285"/>
      <line x1="183" y1="28.571" x2="209" y2="28.571"/>
      <line x1="183" y1="34.857" x2="209" y2="34.857"/>
      <line x1="183" y1="41.142" x2="209" y2="41.142"/>
      <line x1="183" y1="47.428" x2="209" y2="47.428"/>
      <line x1="183" y1="53.714" x2="209" y2="53.714"/>
   </g>
</svg>
