<svg xmlns="http://www.w3.org/2000/svg" viewBox="126 166 398 130">
   <g id="areas" fill="#ccc">
      <g class="area" shortid="271_166" areaname="食堂">
         <polygon points="271,166 321,166 321,230 345,254 391,254 391,296 271,296"/>
         <g class="wrap"
            transform="translate(271,254)"
            width="120"
            height="42"/>
      </g>
      <g class="area" shortid="321_166" areaname="ホール">
         <polygon points="321,166 346,166 346,200 365,219 391,219 391,254 345,254 321,230"/>
         <g class="wrap"
            transform="translate(345,219)"
            width="46"
            height="35"/>
      </g>
      <g class="area" shortid="346_166" areaname="売店">
         <polygon points="346,166 391,166 391,219 365,219 346,200"/>
         <g class="wrap"
            transform="translate(346,166)"
            width="45"
            height="34"/>
      </g>
      <g class="area" shortid="391_166" areaname="国際コラボステーション">
         <polygon points="391,166 494,166 494,219 421,219 421,188 391,188"/>
         <g class="wrap"
            transform="translate(421,166)"
            width="73"
            height="53"/>
      </g>
      <g class="area" shortid="494_166" areaname="トイレ">
         <polygon points="494,166 524,166 524,219 494,219"/>
         <g class="wrap"
            transform="translate(494,166)"
            width="30"
            height="53"/>
      </g>
   </g>
   <g id="lines" stroke="#000">
      <line x1="126" y1="166" x2="161" y2="166"/>
      <line x1="161" y1="166" x2="196" y2="166"/>
      <line x1="196" y1="166" x2="211" y2="166"/>
      <line x1="211" y1="166" x2="241" y2="166"/>
      <line x1="241" y1="166" x2="271" y2="166"/>
      <line x1="271" y1="166" x2="321" y2="166"/>
      <line x1="321" y1="166" x2="346" y2="166"/>
      <line x1="346" y1="166" x2="391" y2="166"/>
      <line x1="391" y1="166" x2="494" y2="166"/>
      <line x1="494" y1="166" x2="524" y2="166"/>
      <line x1="391" y1="188" x2="421" y2="188"/>
      <line x1="211" y1="202" x2="241" y2="202"/>
      <line x1="196" y1="207" x2="211" y2="207"/>
      <line x1="391" y1="208" x2="421" y2="208"/>
      <line x1="241" y1="212" x2="271" y2="212"/>
      <line x1="161" y1="218" x2="196" y2="218"/>
      <line x1="241" y1="218" x2="271" y2="218"/>
      <line x1="365" y1="219" x2="391" y2="219"/>
      <line x1="421" y1="219" x2="494" y2="219"/>
      <line x1="494" y1="219" x2="509" y2="219"/>
      <line x1="509" y1="219" x2="524" y2="219"/>
      <line x1="126" y1="238" x2="211" y2="238"/>
      <line x1="211" y1="238" x2="241" y2="238"/>
      <line x1="241" y1="238" x2="246" y2="238"/>
      <line x1="246" y1="249" x2="271" y2="249"/>
      <line x1="345" y1="254" x2="391" y2="254"/>
      <line x1="509" y1="270" x2="524" y2="270"/>
      <line x1="211" y1="296" x2="271" y2="296"/>
      <line x1="271" y1="296" x2="391" y2="296"/>
      <line x1="391" y1="296" x2="524" y2="296"/>
      <line x1="126" y1="166" x2="126" y2="238"/>
      <line x1="161" y1="166" x2="161" y2="218"/>
      <line x1="196" y1="166" x2="196" y2="207"/>
      <line x1="196" y1="207" x2="196" y2="218"/>
      <line x1="211" y1="166" x2="211" y2="202"/>
      <line x1="211" y1="202" x2="211" y2="207"/>
      <line x1="211" y1="207" x2="211" y2="238"/>
      <line x1="211" y1="238" x2="211" y2="296"/>
      <line x1="241" y1="166" x2="241" y2="202"/>
      <line x1="241" y1="202" x2="241" y2="212"/>
      <line x1="241" y1="218" x2="241" y2="238"/>
      <line x1="246" y1="238" x2="246" y2="249"/>
      <line x1="271" y1="166" x2="271" y2="212"/>
      <line x1="271" y1="218" x2="271" y2="249"/>
      <line x1="271" y1="249" x2="271" y2="296"/>
      <line x1="321" y1="166" x2="321" y2="230"/>
      <line x1="321" y1="230" x2="345" y2="254"/>
      <line x1="346" y1="166" x2="346" y2="200"/>
      <line x1="346" y1="200" x2="365" y2="219"/>
      <line x1="391" y1="166" x2="391" y2="188"/>
      <line x1="391" y1="188" x2="391" y2="208"/>
      <line x1="391" y1="208" x2="391" y2="219"/>
      <line x1="391" y1="219" x2="391" y2="254"/>
      <line x1="391" y1="254" x2="391" y2="296"/>
      <line x1="421" y1="188" x2="421" y2="208"/>
      <line x1="421" y1="208" x2="421" y2="219"/>
      <line x1="494" y1="166" x2="494" y2="219"/>
      <line x1="509" y1="219" x2="509" y2="270"/>
      <line x1="524" y1="166" x2="524" y2="219"/>
      <line x1="524" y1="219" x2="524" y2="270"/>
      <line x1="524" y1="270" x2="524" y2="296"/>
   </g>
   <g id="decorations" fill="none" stroke="#000">
      <line x1="391" y1="188" x2="421" y2="208"/>
      <line x1="391" y1="208" x2="421" y2="188"/>
      <line x1="509" y1="224.1" x2="524" y2="224.1"/>
      <line x1="509" y1="229.2" x2="524" y2="229.2"/>
      <line x1="509" y1="234.3" x2="524" y2="234.3"/>
      <line x1="509" y1="239.4" x2="524" y2="239.4"/>
      <line x1="509" y1="244.5" x2="524" y2="244.5"/>
      <line x1="509" y1="249.6" x2="524" y2="249.6"/>
      <line x1="509" y1="254.7" x2="524" y2="254.7"/>
      <line x1="509" y1="259.8" x2="524" y2="259.8"/>
      <line x1="509" y1="264.9" x2="524" y2="264.9"/>
   </g>
</svg>
