<svg xmlns="http://www.w3.org/2000/svg" viewBox="0 0 524 399">
   <g id="areas" fill="#ccc">
      <g class="area" shortid="96_0" areaname="化学実験室">
         <polygon points="96,0 166,0 166,94 96,94"/>
         <g class="wrap" transform="translate(96,0)" width="70" height="94"/>
      </g>
      <g class="area" shortid="191_0" areaname="階段教室">
         <polygon points="191,0 261,0 261,129 191,129"/>
         <g class="wrap"
            transform="translate(191,0)"
            width="70"
            height="129"/>
      </g>
      <g class="area" shortid="96_94" areaname="化学準備室2">
         <polygon points="96,94 166,94 166,129 96,129"/>
         <g class="wrap"
            transform="translate(96,94)"
            width="70"
            height="35"/>
      </g>
      <g class="area" shortid="331_166" areaname="第5講義室">
         <polygon points="331,166 391,166 391,219 331,219"/>
         <g class="wrap"
            transform="translate(331,166)"
            width="60"
            height="53"/>
      </g>
      <g class="area" shortid="391_166" areaname="進路相談室">
         <polygon points="391,166 451,166 451,219 421,219 421,188 391,188"/>
         <g class="wrap"
            transform="translate(391,166)"
            width="60"
            height="22"/>
      </g>
      <g class="area" shortid="494_166" areaname="男子トイレ">
         <polygon points="494,166 524,166 524,219 494,219"/>
         <g class="wrap"
            transform="translate(494,166)"
            width="30"
            height="53"/>
      </g>
      <g class="area" shortid="0_182" areaname="総務課事務室">
         <polygon points="0,182 96,182 96,260 0,260"/>
         <g class="wrap"
            transform="translate(0,182)"
            width="96"
            height="78"/>
      </g>
      <g class="area" shortid="96_182" areaname="未設定">
         <polygon points="96,182 136,182 136,219 96,219"/>
         <g class="wrap"
            transform="translate(96,182)"
            width="40"
            height="37"/>
      </g>
      <g class="area" shortid="136_182" areaname="印刷室">
         <polygon points="136,182 166,182 166,219 136,219"/>
         <g class="wrap"
            transform="translate(136,182)"
            width="30"
            height="37"/>
      </g>
      <g class="area" shortid="211_182" areaname="コミュニティルームA">
         <polygon points="211,182 271,182 271,219 211,219"/>
         <g class="wrap"
            transform="translate(211,182)"
            width="60"
            height="37"/>
      </g>
      <g class="area" shortid="271_182" areaname="化学準備室1">
         <polygon points="271,182 301,182 301,219 271,219"/>
         <g class="wrap"
            transform="translate(271,182)"
            width="30"
            height="37"/>
      </g>
      <g class="area" shortid="301_182" areaname="佐久間教員室">
         <polygon points="301,182 331,182 331,219 301,219"/>
         <g class="wrap"
            transform="translate(301,182)"
            width="30"
            height="37"/>
      </g>
      <g class="area" shortid="121_244" areaname="職員トイレ">
         <polygon points="121,244 166,244 166,276 121,276"/>
         <g class="wrap"
            transform="translate(121,244)"
            width="45"
            height="32"/>
      </g>
      <g class="area" shortid="211_244" areaname="第3講義室">
         <polygon points="211,244 271,244 271,296 211,296"/>
         <g class="wrap"
            transform="translate(211,244)"
            width="60"
            height="52"/>
      </g>
      <g class="area" shortid="271_244" areaname="佐合教員室">
         <polygon points="271,244 291,244 291,296 271,296"/>
         <g class="wrap"
            transform="translate(271,244)"
            width="20"
            height="52"/>
      </g>
      <g class="area" shortid="291_244" areaname="阿部教員室">
         <polygon points="291,244 311,244 311,296 291,296"/>
         <g class="wrap"
            transform="translate(291,244)"
            width="20"
            height="52"/>
      </g>
      <g class="area" shortid="311_244" areaname="佐野教員室">
         <polygon points="311,244 331,244 331,296 311,296"/>
         <g class="wrap"
            transform="translate(311,244)"
            width="20"
            height="52"/>
      </g>
      <g class="area" shortid="331_244" areaname="鈴木道教員室">
         <polygon points="331,244 351,244 351,296 331,296"/>
         <g class="wrap"
            transform="translate(331,244)"
            width="20"
            height="52"/>
      </g>
      <g class="area" shortid="351_244" areaname="山下教員室">
         <polygon points="351,244 371,244 371,296 351,296"/>
         <g class="wrap"
            transform="translate(351,244)"
            width="20"
            height="52"/>
      </g>
      <g class="area" shortid="371_244" areaname="倉橋教員室">
         <polygon points="371,244 391,244 391,296 371,296"/>
         <g class="wrap"
            transform="translate(371,244)"
            width="20"
            height="52"/>
      </g>
      <g class="area" shortid="391_244" areaname="女子学生更衣室">
         <polygon points="391,244 451,244 451,296 391,296"/>
         <g class="wrap"
            transform="translate(391,244)"
            width="60"
            height="52"/>
      </g>
      <g class="area" shortid="66_296" areaname="更衣室(女)">
         <polygon points="66,296 106,296 106,317 66,317"/>
         <g class="wrap"
            transform="translate(66,296)"
            width="40"
            height="21"/>
      </g>
      <g class="area" shortid="121_296" areaname="物品納品検収室">
         <polygon points="121,296 166,296 166,353 121,353"/>
         <g class="wrap"
            transform="translate(121,296)"
            width="45"
            height="57"/>
      </g>
      <g class="area" shortid="66_317" areaname="機器室">
         <polygon points="66,317 106,317 106,343 66,343"/>
         <g class="wrap"
            transform="translate(66,317)"
            width="40"
            height="26"/>
      </g>
      <g class="area" shortid="66_343" areaname="更衣室(男)">
         <polygon points="66,343 106,343 106,368 66,368"/>
         <g class="wrap"
            transform="translate(66,343)"
            width="40"
            height="25"/>
      </g>
      <g class="area" shortid="121_353" areaname="入札室">
         <polygon points="121,353 166,353 166,399 121,399"/>
         <g class="wrap"
            transform="translate(121,353)"
            width="45"
            height="46"/>
      </g>
      <g class="area" shortid="66_368" areaname="未設定">
         <polygon points="66,368 121,368 121,399 66,399"/>
         <g class="wrap"
            transform="translate(66,368)"
            width="55"
            height="31"/>
      </g>
   </g>
   <g id="lines" stroke="#000">
      <line x1="96" y1="0" x2="166" y2="0"/>
      <line x1="166" y1="0" x2="191" y2="0"/>
      <line x1="191" y1="0" x2="261" y2="0"/>
      <line x1="96" y1="94" x2="166" y2="94"/>
      <line x1="96" y1="129" x2="166" y2="129"/>
      <line x1="191" y1="129" x2="211" y2="129"/>
      <line x1="211" y1="129" x2="261" y2="129"/>
      <line x1="331" y1="166" x2="391" y2="166"/>
      <line x1="391" y1="166" x2="451" y2="166"/>
      <line x1="451" y1="166" x2="494" y2="166"/>
      <line x1="494" y1="166" x2="524" y2="166"/>
      <line x1="0" y1="182" x2="96" y2="182"/>
      <line x1="96" y1="182" x2="136" y2="182"/>
      <line x1="136" y1="182" x2="166" y2="182"/>
      <line x1="196" y1="182" x2="211" y2="182"/>
      <line x1="211" y1="182" x2="271" y2="182"/>
      <line x1="271" y1="182" x2="301" y2="182"/>
      <line x1="301" y1="182" x2="331" y2="182"/>
      <line x1="391" y1="188" x2="421" y2="188"/>
      <line x1="391" y1="208" x2="421" y2="208"/>
      <line x1="451" y1="208" x2="494" y2="208"/>
      <line x1="196" y1="219" x2="211" y2="219"/>
      <line x1="96" y1="219" x2="136" y2="219"/>
      <line x1="136" y1="219" x2="166" y2="219"/>
      <line x1="211" y1="219" x2="271" y2="219"/>
      <line x1="271" y1="219" x2="301" y2="219"/>
      <line x1="301" y1="219" x2="331" y2="219"/>
      <line x1="331" y1="219" x2="391" y2="219"/>
      <line x1="421" y1="219" x2="451" y2="219"/>
      <line x1="494" y1="219" x2="524" y2="219"/>
      <line x1="121" y1="244" x2="166" y2="244"/>
      <line x1="166" y1="244" x2="211" y2="244"/>
      <line x1="211" y1="244" x2="271" y2="244"/>
      <line x1="271" y1="244" x2="291" y2="244"/>
      <line x1="291" y1="244" x2="311" y2="244"/>
      <line x1="311" y1="244" x2="331" y2="244"/>
      <line x1="331" y1="244" x2="351" y2="244"/>
      <line x1="351" y1="244" x2="371" y2="244"/>
      <line x1="371" y1="244" x2="391" y2="244"/>
      <line x1="391" y1="244" x2="451" y2="244"/>
      <line x1="451" y1="244" x2="509" y2="244"/>
      <line x1="509" y1="244" x2="524" y2="244"/>
      <line x1="0" y1="260" x2="96" y2="260"/>
      <line x1="121" y1="276" x2="126" y2="276"/>
      <line x1="126" y1="276" x2="166" y2="276"/>
      <line x1="509" y1="270" x2="524" y2="270"/>
      <line x1="66" y1="296" x2="96" y2="296"/>
      <line x1="96" y1="296" x2="106" y2="296"/>
      <line x1="121" y1="296" x2="126" y2="296"/>
      <line x1="126" y1="296" x2="166" y2="296"/>
      <line x1="211" y1="296" x2="271" y2="296"/>
      <line x1="271" y1="296" x2="291" y2="296"/>
      <line x1="291" y1="296" x2="311" y2="296"/>
      <line x1="311" y1="296" x2="331" y2="296"/>
      <line x1="331" y1="296" x2="351" y2="296"/>
      <line x1="351" y1="296" x2="371" y2="296"/>
      <line x1="371" y1="296" x2="391" y2="296"/>
      <line x1="391" y1="296" x2="451" y2="296"/>
      <line x1="451" y1="296" x2="524" y2="296"/>
      <line x1="66" y1="317" x2="106" y2="317"/>
      <line x1="66" y1="343" x2="106" y2="343"/>
      <line x1="121" y1="353" x2="166" y2="353"/>
      <line x1="66" y1="368" x2="106" y2="368"/>
      <line x1="106" y1="368" x2="121" y2="368"/>
      <line x1="66" y1="399" x2="121" y2="399"/>
      <line x1="121" y1="399" x2="166" y2="399"/>
      <line x1="0" y1="182" x2="0" y2="260"/>
      <line x1="66" y1="296" x2="66" y2="317"/>
      <line x1="66" y1="317" x2="66" y2="343"/>
      <line x1="66" y1="343" x2="66" y2="368"/>
      <line x1="66" y1="368" x2="66" y2="399"/>
      <line x1="96" y1="0" x2="96" y2="94"/>
      <line x1="96" y1="94" x2="96" y2="129"/>
      <line x1="96" y1="182" x2="96" y2="219"/>
      <line x1="96" y1="219" x2="96" y2="260"/>
      <line x1="96" y1="260" x2="96" y2="296"/>
      <line x1="106" y1="296" x2="106" y2="317"/>
      <line x1="106" y1="317" x2="106" y2="343"/>
      <line x1="106" y1="343" x2="106" y2="368"/>
      <line x1="121" y1="244" x2="121" y2="276"/>
      <line x1="121" y1="296" x2="121" y2="353"/>
      <line x1="121" y1="353" x2="121" y2="368"/>
      <line x1="121" y1="368" x2="121" y2="399"/>
      <line x1="126" y1="276" x2="126" y2="296"/>
      <line x1="136" y1="182" x2="136" y2="219"/>
      <line x1="166" y1="0" x2="166" y2="94"/>
      <line x1="166" y1="94" x2="166" y2="129"/>
      <line x1="166" y1="129" x2="166" y2="182"/>
      <line x1="166" y1="182" x2="166" y2="219"/>
      <line x1="166" y1="244" x2="166" y2="276"/>
      <line x1="166" y1="276" x2="166" y2="296"/>
      <line x1="166" y1="296" x2="166" y2="353"/>
      <line x1="166" y1="353" x2="166" y2="399"/>
      <line x1="191" y1="0" x2="191" y2="129"/>
      <line x1="196" y1="182" x2="196" y2="219"/>
      <line x1="211" y1="129" x2="211" y2="182"/>
      <line x1="211" y1="182" x2="211" y2="219"/>
      <line x1="211" y1="219" x2="211" y2="219"/>
      <line x1="211" y1="244" x2="211" y2="296"/>
      <line x1="261" y1="0" x2="261" y2="129"/>
      <line x1="271" y1="182" x2="271" y2="219"/>
      <line x1="271" y1="244" x2="271" y2="296"/>
      <line x1="291" y1="244" x2="291" y2="296"/>
      <line x1="301" y1="182" x2="301" y2="219"/>
      <line x1="311" y1="244" x2="311" y2="296"/>
      <line x1="331" y1="166" x2="331" y2="182"/>
      <line x1="331" y1="182" x2="331" y2="219"/>
      <line x1="331" y1="244" x2="331" y2="296"/>
      <line x1="351" y1="244" x2="351" y2="296"/>
      <line x1="371" y1="244" x2="371" y2="296"/>
      <line x1="391" y1="166" x2="391" y2="188"/>
      <line x1="391" y1="188" x2="391" y2="208"/>
      <line x1="391" y1="208" x2="391" y2="219"/>
      <line x1="391" y1="244" x2="391" y2="296"/>
      <line x1="421" y1="188" x2="421" y2="208"/>
      <line x1="421" y1="208" x2="421" y2="219"/>
      <line x1="451" y1="166" x2="451" y2="208"/>
      <line x1="451" y1="208" x2="451" y2="219"/>
      <line x1="451" y1="244" x2="451" y2="296"/>
      <line x1="494" y1="166" x2="494" y2="208"/>
      <line x1="494" y1="208" x2="494" y2="219"/>
      <line x1="509" y1="244" x2="509" y2="270"/>
      <line x1="524" y1="166" x2="524" y2="219"/>
      <line x1="524" y1="219" x2="524" y2="244"/>
      <line x1="524" y1="244" x2="524" y2="270"/>
      <line x1="524" y1="270" x2="524" y2="296"/>
   </g>
   <g id="decorations" fill="none" stroke="#000">
      <line x1="391" y1="188" x2="421" y2="208"/>
      <line x1="391" y1="208" x2="421" y2="188"/>
      <line x1="509" y1="249.6" x2="524" y2="249.6"/>
      <line x1="509" y1="254.7" x2="524" y2="254.7"/>
      <line x1="509" y1="259.8" x2="524" y2="259.8"/>
      <line x1="509" y1="264.9" x2="524" y2="264.9"/>
      <line x1="451" y1="244" x2="524" y2="296"/>
      <line x1="451" y1="296" x2="524" y2="244"/>
      <line x1="451" y1="171.25" x2="494" y2="171.25"/>
      <line x1="451" y1="176.5 " x2="494" y2="176.5 "/>
      <line x1="451" y1="181.75" x2="494" y2="181.75"/>
      <line x1="451" y1="187.0 " x2="494" y2="187.0 "/>
      <line x1="451" y1="192.25" x2="494" y2="192.25"/>
      <line x1="451" y1="197.5 " x2="494" y2="197.5 "/>
      <line x1="451" y1="202.75" x2="494" y2="202.75"/>
      <line x1="196" y1="187.285" x2="211" y2="187.285"/>
      <line x1="196" y1="192.571" x2="211" y2="192.571"/>
      <line x1="196" y1="197.857" x2="211" y2="197.857"/>
      <line x1="196" y1="203.142" x2="211" y2="203.142"/>
      <line x1="196" y1="208.428" x2="211" y2="208.428"/>
      <line x1="196" y1="213.714" x2="211" y2="213.714"/>
      <line x1="131.714" y1="276" x2="131.714" y2="296"/>
      <line x1="137.428" y1="276" x2="137.428" y2="296"/>
      <line x1="143.142" y1="276" x2="143.142" y2="296"/>
      <line x1="148.857" y1="276" x2="148.857" y2="296"/>
      <line x1="154.571" y1="276" x2="154.571" y2="296"/>
      <line x1="160.285" y1="276" x2="160.285" y2="296"/>
      <line x1="166.0  " y1="276" x2="166.0  " y2="296"/>
   </g>
</svg>
