<svg xmlns="http://www.w3.org/2000/svg" viewBox="0 0 524 399">
   <g id="areas" fill="#ccc">
      <g class="area" shortid="96_0" areaname="物理第1実験室">
         <polygon points="96,0 166,0 166,94 96,94"/>
         <g class="wrap" transform="translate(96,0)" width="70" height="94"/>
      </g>
      <g class="area" shortid="191_0" areaname="物理第2実験室">
         <polygon points="191,0 261,0 261,94 191,94"/>
         <g class="wrap"
            transform="translate(191,0)"
            width="70"
            height="94"/>
      </g>
      <g class="area" shortid="96_94" areaname="準備室">
         <polygon points="96,94 166,94 166,104 146,104 146,129 96,129"/>
         <g class="wrap"
            transform="translate(96,94)"
            width="50"
            height="35"/>
      </g>
      <g class="area" shortid="191_94" areaname="基礎実験室">
         <polygon points="191,94 261,94 261,129 191,129"/>
         <g class="wrap"
            transform="translate(191,94)"
            width="70"
            height="35"/>
      </g>
      <g class="area" shortid="146_104" areaname="暗室">
         <polygon points="146,104 166,104 166,129 146,129"/>
         <g class="wrap"
            transform="translate(146,104)"
            width="20"
            height="25"/>
      </g>
      <g class="area" shortid="331_166" areaname="オープンラボA">
         <polygon points="331,166 391,166 391,219 331,219"/>
         <g class="wrap"
            transform="translate(331,166)"
            width="60"
            height="53"/>
      </g>
      <g class="area" shortid="391_166" areaname="特別教室準備室">
         <polygon points="391,166 451,166 451,219 421,219 421,188 391,188"/>
         <g class="wrap"
            transform="translate(391,166)"
            width="60"
            height="22"/>
      </g>
      <g class="area" shortid="494_166" areaname="男子トイレ">
         <polygon points="494,166 524,166 524,219 494,219"/>
         <g class="wrap"
            transform="translate(494,166)"
            width="30"
            height="53"/>
      </g>
      <g class="area" shortid="0_182" areaname="会議室A">
         <polygon points="0,182 96,182 96,260 0,260"/>
         <g class="wrap"
            transform="translate(0,182)"
            width="96"
            height="78"/>
      </g>
      <g class="area" shortid="96_182" areaname="資料室">
         <polygon points="96,182 121,182 121,219 96,219"/>
         <g class="wrap"
            transform="translate(96,182)"
            width="25"
            height="37"/>
      </g>
      <g class="area" shortid="121_182" areaname="キャリア支援室">
         <polygon points="121,182 166,182 166,219 121,219"/>
         <g class="wrap"
            transform="translate(121,182)"
            width="45"
            height="37"/>
      </g>
      <g class="area" shortid="211_182" areaname="コミュニティルームB">
         <polygon points="211,182 271,182 271,219 211,219"/>
         <g class="wrap"
            transform="translate(211,182)"
            width="60"
            height="37"/>
      </g>
      <g class="area" shortid="271_182" areaname="共通ゼミ室A">
         <polygon points="271,182 331,182 331,219 271,219"/>
         <g class="wrap"
            transform="translate(271,182)"
            width="60"
            height="37"/>
      </g>
      <g class="area" shortid="121_244" areaname="職員トイレ">
         <polygon points="121,244 166,244 166,276 121,276"/>
         <g class="wrap"
            transform="translate(121,244)"
            width="45"
            height="32"/>
      </g>
      <g class="area" shortid="211_244" areaname="高谷教員室">
         <polygon points="211,244 231,244 231,296 211,296"/>
         <g class="wrap"
            transform="translate(211,244)"
            width="20"
            height="52"/>
      </g>
      <g class="area" shortid="231_244" areaname="福地教員室">
         <polygon points="231,244 251,244 251,296 231,296"/>
         <g class="wrap"
            transform="translate(231,244)"
            width="20"
            height="52"/>
      </g>
      <g class="area" shortid="251_244" areaname="嘉数教員室">
         <polygon points="251,244 271,244 271,296 251,296"/>
         <g class="wrap"
            transform="translate(251,244)"
            width="20"
            height="52"/>
      </g>
      <g class="area" shortid="271_244" areaname="関口昌教員室">
         <polygon points="271,244 291,244 291,296 271,296"/>
         <g class="wrap"
            transform="translate(271,244)"
            width="20"
            height="52"/>
      </g>
      <g class="area" shortid="291_244" areaname="田所教員室">
         <polygon points="291,244 311,244 311,296 291,296"/>
         <g class="wrap"
            transform="translate(291,244)"
            width="20"
            height="52"/>
      </g>
      <g class="area" shortid="311_244" areaname="田嶋教員室">
         <polygon points="311,244 331,244 331,296 311,296"/>
         <g class="wrap"
            transform="translate(311,244)"
            width="20"
            height="52"/>
      </g>
      <g class="area" shortid="331_244" areaname="加藤教員室">
         <polygon points="331,244 351,244 351,296 331,296"/>
         <g class="wrap"
            transform="translate(331,244)"
            width="20"
            height="52"/>
      </g>
      <g class="area" shortid="351_244" areaname="武長教員室">
         <polygon points="351,244 371,244 371,296 351,296"/>
         <g class="wrap"
            transform="translate(351,244)"
            width="20"
            height="52"/>
      </g>
      <g class="area" shortid="371_244" areaname="柴田教員室">
         <polygon points="371,244 391,244 391,296 371,296"/>
         <g class="wrap"
            transform="translate(371,244)"
            width="20"
            height="52"/>
      </g>
      <g class="area" shortid="391_244" areaname="小谷教員室">
         <polygon points="391,244 411,244 411,296 391,296"/>
         <g class="wrap"
            transform="translate(391,244)"
            width="20"
            height="52"/>
      </g>
      <g class="area" shortid="411_244" areaname="岩崎教員室">
         <polygon points="411,244 431,244 431,296 411,296"/>
         <g class="wrap"
            transform="translate(411,244)"
            width="20"
            height="52"/>
      </g>
      <g class="area" shortid="431_244" areaname="小澤教員室">
         <polygon points="431,244 451,244 451,296 431,296"/>
         <g class="wrap"
            transform="translate(431,244)"
            width="20"
            height="52"/>
      </g>
      <g class="area" shortid="451_244" areaname="荒木教員室">
         <polygon points="451,244 484,244 484,296 451,296"/>
         <g class="wrap"
            transform="translate(451,244)"
            width="33"
            height="52"/>
      </g>
      <g class="area" shortid="484_244" areaname="福士教員室">
         <polygon points="484,244 504,244 504,296 484,296"/>
         <g class="wrap"
            transform="translate(484,244)"
            width="20"
            height="52"/>
      </g>
      <g class="area" shortid="504_244" areaname="瀬川教員室">
         <polygon points="504,244 524,244 524,296 504,296"/>
         <g class="wrap"
            transform="translate(504,244)"
            width="20"
            height="52"/>
      </g>
      <g class="area" shortid="66_260" areaname="応接室">
         <polygon points="66,260 96,260 96,296 66,296"/>
         <g class="wrap"
            transform="translate(66,260)"
            width="30"
            height="36"/>
      </g>
      <g class="area" shortid="66_296" areaname="会議室B">
         <polygon points="66,296 106,296 106,399 66,399"/>
         <g class="wrap"
            transform="translate(66,296)"
            width="40"
            height="103"/>
      </g>
      <g class="area" shortid="121_296" areaname="事務部長室">
         <polygon points="121,296 166,296 166,327 121,327"/>
         <g class="wrap"
            transform="translate(121,296)"
            width="45"
            height="31"/>
      </g>
      <g class="area" shortid="106_327" areaname="前室">
         <polygon points="106,327 166,327 166,343 121,343 121,348 106,348"/>
         <g class="wrap"
            transform="translate(106,327)"
            width="60"
            height="16"/>
      </g>
      <g class="area" shortid="121_343" areaname="校長室">
         <polygon points="121,343 166,343 166,399 106,399 106,348 121,348"/>
         <g class="wrap"
            transform="translate(106,348)"
            width="60"
            height="51"/>
      </g>
   </g>
   <g id="lines" stroke="#000">
      <line x1="96" y1="0" x2="166" y2="0"/>
      <line x1="166" y1="0" x2="191" y2="0"/>
      <line x1="191" y1="0" x2="261" y2="0"/>
      <line x1="96" y1="94" x2="166" y2="94"/>
      <line x1="191" y1="94" x2="261" y2="94"/>
      <line x1="146" y1="104" x2="166" y2="104"/>
      <line x1="96" y1="129" x2="146" y2="129"/>
      <line x1="146" y1="129" x2="166" y2="129"/>
      <line x1="191" y1="129" x2="261" y2="129"/>
      <line x1="196" y1="146" x2="211" y2="146"/>
      <line x1="331" y1="166" x2="391" y2="166"/>
      <line x1="391" y1="166" x2="451" y2="166"/>
      <line x1="451" y1="166" x2="494" y2="166"/>
      <line x1="494" y1="166" x2="524" y2="166"/>
      <line x1="0" y1="182" x2="96" y2="182"/>
      <line x1="96" y1="182" x2="121" y2="182"/>
      <line x1="121" y1="182" x2="166" y2="182"/>
      <line x1="211" y1="182" x2="271" y2="182"/>
      <line x1="271" y1="182" x2="331" y2="182"/>
      <line x1="391" y1="188" x2="421" y2="188"/>
      <line x1="196" y1="203" x2="211" y2="203"/>
      <line x1="391" y1="208" x2="421" y2="208"/>
      <line x1="451" y1="208" x2="494" y2="208"/>
      <line x1="96" y1="219" x2="121" y2="219"/>
      <line x1="121" y1="219" x2="166" y2="219"/>
      <line x1="211" y1="219" x2="271" y2="219"/>
      <line x1="271" y1="219" x2="331" y2="219"/>
      <line x1="331" y1="219" x2="391" y2="219"/>
      <line x1="421" y1="219" x2="451" y2="219"/>
      <line x1="494" y1="219" x2="524" y2="219"/>
      <line x1="121" y1="244" x2="166" y2="244"/>
      <line x1="166" y1="244" x2="211" y2="244"/>
      <line x1="211" y1="244" x2="231" y2="244"/>
      <line x1="231" y1="244" x2="251" y2="244"/>
      <line x1="251" y1="244" x2="271" y2="244"/>
      <line x1="271" y1="244" x2="291" y2="244"/>
      <line x1="291" y1="244" x2="311" y2="244"/>
      <line x1="311" y1="244" x2="331" y2="244"/>
      <line x1="331" y1="244" x2="351" y2="244"/>
      <line x1="351" y1="244" x2="371" y2="244"/>
      <line x1="371" y1="244" x2="391" y2="244"/>
      <line x1="391" y1="244" x2="411" y2="244"/>
      <line x1="411" y1="244" x2="431" y2="244"/>
      <line x1="431" y1="244" x2="451" y2="244"/>
      <line x1="451" y1="244" x2="484" y2="244"/>
      <line x1="484" y1="244" x2="504" y2="244"/>
      <line x1="504" y1="244" x2="524" y2="244"/>
      <line x1="0" y1="260" x2="51" y2="260"/>
      <line x1="51" y1="260" x2="66" y2="260"/>
      <line x1="66" y1="260" x2="96" y2="260"/>
      <line x1="121" y1="276" x2="126" y2="276"/>
      <line x1="126" y1="276" x2="166" y2="276"/>
      <line x1="51" y1="296" x2="66" y2="296"/>
      <line x1="66" y1="296" x2="96" y2="296"/>
      <line x1="96" y1="296" x2="106" y2="296"/>
      <line x1="121" y1="296" x2="126" y2="296"/>
      <line x1="126" y1="296" x2="166" y2="296"/>
      <line x1="211" y1="296" x2="231" y2="296"/>
      <line x1="231" y1="296" x2="251" y2="296"/>
      <line x1="251" y1="296" x2="271" y2="296"/>
      <line x1="271" y1="296" x2="291" y2="296"/>
      <line x1="291" y1="296" x2="311" y2="296"/>
      <line x1="311" y1="296" x2="331" y2="296"/>
      <line x1="331" y1="296" x2="351" y2="296"/>
      <line x1="351" y1="296" x2="371" y2="296"/>
      <line x1="371" y1="296" x2="391" y2="296"/>
      <line x1="391" y1="296" x2="411" y2="296"/>
      <line x1="411" y1="296" x2="431" y2="296"/>
      <line x1="431" y1="296" x2="451" y2="296"/>
      <line x1="451" y1="296" x2="484" y2="296"/>
      <line x1="484" y1="296" x2="504" y2="296"/>
      <line x1="504" y1="296" x2="524" y2="296"/>
      <line x1="106" y1="327" x2="121" y2="327"/>
      <line x1="121" y1="327" x2="166" y2="327"/>
      <line x1="121" y1="343" x2="166" y2="343"/>
      <line x1="106" y1="348" x2="121" y2="348"/>
      <line x1="66" y1="399" x2="106" y2="399"/>
      <line x1="106" y1="399" x2="166" y2="399"/>
      <line x1="0" y1="182" x2="0" y2="260"/>
      <line x1="51" y1="260" x2="51" y2="296"/>
      <line x1="66" y1="260" x2="66" y2="296"/>
      <line x1="66" y1="296" x2="66" y2="399"/>
      <line x1="96" y1="0" x2="96" y2="94"/>
      <line x1="96" y1="94" x2="96" y2="129"/>
      <line x1="96" y1="182" x2="96" y2="219"/>
      <line x1="96" y1="219" x2="96" y2="260"/>
      <line x1="96" y1="260" x2="96" y2="296"/>
      <line x1="106" y1="296" x2="106" y2="327"/>
      <line x1="106" y1="327" x2="106" y2="348"/>
      <line x1="106" y1="348" x2="106" y2="399"/>
      <line x1="121" y1="182" x2="121" y2="219"/>
      <line x1="121" y1="244" x2="121" y2="276"/>
      <line x1="121" y1="296" x2="121" y2="327"/>
      <line x1="121" y1="343" x2="121" y2="348"/>
      <line x1="126" y1="276" x2="126" y2="296"/>
      <line x1="146" y1="104" x2="146" y2="129"/>
      <line x1="166" y1="0" x2="166" y2="94"/>
      <line x1="166" y1="94" x2="166" y2="104"/>
      <line x1="166" y1="104" x2="166" y2="129"/>
      <line x1="166" y1="129" x2="166" y2="182"/>
      <line x1="166" y1="182" x2="166" y2="219"/>
      <line x1="166" y1="244" x2="166" y2="276"/>
      <line x1="166" y1="276" x2="166" y2="296"/>
      <line x1="166" y1="296" x2="166" y2="327"/>
      <line x1="166" y1="327" x2="166" y2="343"/>
      <line x1="166" y1="343" x2="166" y2="399"/>
      <line x1="191" y1="0" x2="191" y2="94"/>
      <line x1="191" y1="94" x2="191" y2="129"/>
      <line x1="196" y1="146" x2="196" y2="203"/>
      <line x1="211" y1="129" x2="211" y2="146"/>
      <line x1="211" y1="146" x2="211" y2="182"/>
      <line x1="211" y1="182" x2="211" y2="203"/>
      <line x1="211" y1="203" x2="211" y2="219"/>
      <line x1="211" y1="244" x2="211" y2="296"/>
      <line x1="231" y1="244" x2="231" y2="296"/>
      <line x1="251" y1="244" x2="251" y2="296"/>
      <line x1="261" y1="0" x2="261" y2="94"/>
      <line x1="261" y1="94" x2="261" y2="129"/>
      <line x1="271" y1="182" x2="271" y2="219"/>
      <line x1="271" y1="244" x2="271" y2="296"/>
      <line x1="291" y1="244" x2="291" y2="296"/>
      <line x1="311" y1="244" x2="311" y2="296"/>
      <line x1="331" y1="166" x2="331" y2="182"/>
      <line x1="331" y1="182" x2="331" y2="219"/>
      <line x1="331" y1="244" x2="331" y2="296"/>
      <line x1="351" y1="244" x2="351" y2="296"/>
      <line x1="371" y1="244" x2="371" y2="296"/>
      <line x1="391" y1="166" x2="391" y2="188"/>
      <line x1="391" y1="188" x2="391" y2="208"/>
      <line x1="391" y1="208" x2="391" y2="219"/>
      <line x1="391" y1="244" x2="391" y2="296"/>
      <line x1="411" y1="244" x2="411" y2="296"/>
      <line x1="421" y1="188" x2="421" y2="208"/>
      <line x1="421" y1="208" x2="421" y2="219"/>
      <line x1="431" y1="244" x2="431" y2="296"/>
      <line x1="451" y1="166" x2="451" y2="208"/>
      <line x1="451" y1="208" x2="451" y2="219"/>
      <line x1="451" y1="244" x2="451" y2="296"/>
      <line x1="484" y1="244" x2="484" y2="296"/>
      <line x1="494" y1="166" x2="494" y2="208"/>
      <line x1="494" y1="208" x2="494" y2="219"/>
      <line x1="504" y1="244" x2="504" y2="296"/>
      <line x1="524" y1="166" x2="524" y2="219"/>
      <line x1="524" y1="219" x2="524" y2="244"/>
      <line x1="524" y1="244" x2="524" y2="296"/>
   </g>
   <g id="decorations" fill="none" stroke="#000">
      <line x1="391" y1="188" x2="421" y2="208"/>
      <line x1="391" y1="208" x2="421" y2="188"/>
      <line x1="451" y1="171.25" x2="494" y2="171.25"/>
      <line x1="451" y1="176.5 " x2="494" y2="176.5 "/>
      <line x1="451" y1="181.75" x2="494" y2="181.75"/>
      <line x1="451" y1="187.0 " x2="494" y2="187.0 "/>
      <line x1="451" y1="192.25" x2="494" y2="192.25"/>
      <line x1="451" y1="197.5 " x2="494" y2="197.5 "/>
      <line x1="451" y1="202.75" x2="494" y2="202.75"/>
      <line x1="196" y1="151.181" x2="211" y2="151.181"/>
      <line x1="196" y1="156.363" x2="211" y2="156.363"/>
      <line x1="196" y1="161.545" x2="211" y2="161.545"/>
      <line x1="196" y1="166.727" x2="211" y2="166.727"/>
      <line x1="196" y1="171.909" x2="211" y2="171.909"/>
      <line x1="196" y1="177.090" x2="211" y2="177.090"/>
      <line x1="196" y1="182.272" x2="211" y2="182.272"/>
      <line x1="196" y1="187.454" x2="211" y2="187.454"/>
      <line x1="196" y1="192.636" x2="211" y2="192.636"/>
      <line x1="196" y1="197.818" x2="211" y2="197.818"/>
      <line x1="131.714" y1="276" x2="131.714" y2="296"/>
      <line x1="137.428" y1="276" x2="137.428" y2="296"/>
      <line x1="143.142" y1="276" x2="143.142" y2="296"/>
      <line x1="148.857" y1="276" x2="148.857" y2="296"/>
      <line x1="154.571" y1="276" x2="154.571" y2="296"/>
      <line x1="160.285" y1="276" x2="160.285" y2="296"/>
      <line x1="166.0  " y1="276" x2="166.0  " y2="296"/>
   </g>
</svg>
