<svg xmlns="http://www.w3.org/2000/svg" viewBox="0 0 475 168">
   <g id="areas" fill="#ccc">
      <g class="area" shortid="37_0" areaname="電子制御第1実験室">
         <polygon vector-effect="non-scaling-stroke" points="37,0 258,0 258,84 37,84"/>
         <g class="wrap"
            transform="translate(37,0)"
            width="221"
            height="84"/>
      </g>
      <g class="area" shortid="258_0" areaname="電子制御第2実験室">
         <polygon vector-effect="non-scaling-stroke" points="258,0 368,0 368,84 258,84"/>
         <g class="wrap"
            transform="translate(258,0)"
            width="110"
            height="84"/>
      </g>
      <g class="area" shortid="368_0" areaname="電子制御準備室">
         <polygon vector-effect="non-scaling-stroke" points="368,0 405,0 405,84 368,84"/>
         <g class="wrap"
            transform="translate(368,0)"
            width="37"
            height="84"/>
      </g>
      <g class="area" shortid="405_0" areaname="男子トイレ">
         <polygon vector-effect="non-scaling-stroke" points="405,0 439,0 439,84 405,84"/>
         <g class="wrap"
            transform="translate(405,0)"
            width="34"
            height="84"/>
      </g>
      <g class="area" shortid="37_121" areaname="鴇田教員室">
         <polygon vector-effect="non-scaling-stroke" points="37,121 72,121 72,168 37,168"/>
         <g class="wrap"
            transform="translate(37,121)"
            width="35"
            height="47"/>
      </g>
      <g class="area" shortid="72_121" areaname="大橋教員室">
         <polygon vector-effect="non-scaling-stroke"
                  points="72,121 109,121 109,168 72,168"/>
         <g class="wrap"
            transform="translate(72,121)"
            width="37"
            height="47"/>
      </g>
      <g class="area" shortid="109_121" areaname="制御工学実験室1">
         <polygon vector-effect="non-scaling-stroke"
                  points="109,121 184,121 184,168 109,168"/>
         <g class="wrap"
            transform="translate(109,121)"
            width="75"
            height="47"/>
      </g>
      <g class="area" shortid="184_121" areaname="制御工学実験室2">
         <polygon vector-effect="non-scaling-stroke"
                  points="184,121 258,121 258,168 184,168"/>
         <g class="wrap"
            transform="translate(184,121)"
            width="74"
            height="47"/>
      </g>
      <g class="area" shortid="258_121" areaname="泉教員室">
         <polygon vector-effect="non-scaling-stroke"
                  points="258,121 310,121 310,168 258,168"/>
         <g class="wrap"
            transform="translate(258,121)"
            width="52"
            height="47"/>
      </g>
      <g class="area" shortid="310_144" areaname="情報工学実験室">
         <polygon vector-effect="non-scaling-stroke"
                  points="310,144 333,144 333,121 475,121 475,168 310,168"/>
         <g class="wrap"
            transform="translate(333,121)"
            width="142"
            height="47"/>
      </g>
   </g>
   <g id="lines" stroke="#000">
      <line vector-effect="non-scaling-stroke"
            x1="37"
            y1="0"
            x2="258"
            y2="0"/>
      <line vector-effect="non-scaling-stroke"
            x1="258"
            y1="0"
            x2="368"
            y2="0"/>
      <line vector-effect="non-scaling-stroke"
            x1="368"
            y1="0"
            x2="405"
            y2="0"/>
      <line vector-effect="non-scaling-stroke"
            x1="405"
            y1="0"
            x2="439"
            y2="0"/>
      <line vector-effect="non-scaling-stroke"
            x1="439"
            y1="0"
            x2="475"
            y2="0"/>
      <line vector-effect="non-scaling-stroke"
            x1="0"
            y1="84"
            x2="37"
            y2="84"/>
      <line vector-effect="non-scaling-stroke"
            x1="37"
            y1="84"
            x2="258"
            y2="84"/>
      <line vector-effect="non-scaling-stroke"
            x1="258"
            y1="84"
            x2="368"
            y2="84"/>
      <line vector-effect="non-scaling-stroke"
            x1="368"
            y1="84"
            x2="405"
            y2="84"/>
      <line vector-effect="non-scaling-stroke"
            x1="405"
            y1="84"
            x2="439"
            y2="84"/>
      <line vector-effect="non-scaling-stroke"
            x1="439"
            y1="84"
            x2="475"
            y2="84"/>
      <line vector-effect="non-scaling-stroke"
            x1="0"
            y1="121"
            x2="37"
            y2="121"/>
      <line vector-effect="non-scaling-stroke"
            x1="37"
            y1="121"
            x2="72"
            y2="121"/>
      <line vector-effect="non-scaling-stroke"
            x1="72"
            y1="121"
            x2="109"
            y2="121"/>
      <line vector-effect="non-scaling-stroke"
            x1="109"
            y1="121"
            x2="184"
            y2="121"/>
      <line vector-effect="non-scaling-stroke"
            x1="184"
            y1="121"
            x2="258"
            y2="121"/>
      <line vector-effect="non-scaling-stroke"
            x1="258"
            y1="121"
            x2="310"
            y2="121"/>
      <line vector-effect="non-scaling-stroke"
            x1="310"
            y1="121"
            x2="333"
            y2="121"/>
      <line vector-effect="non-scaling-stroke"
            x1="333"
            y1="121"
            x2="475"
            y2="121"/>
      <line vector-effect="non-scaling-stroke"
            x1="310"
            y1="144"
            x2="333"
            y2="144"/>
      <line vector-effect="non-scaling-stroke"
            x1="37"
            y1="168"
            x2="72"
            y2="168"/>
      <line vector-effect="non-scaling-stroke"
            x1="72"
            y1="168"
            x2="109"
            y2="168"/>
      <line vector-effect="non-scaling-stroke"
            x1="109"
            y1="168"
            x2="184"
            y2="168"/>
      <line vector-effect="non-scaling-stroke"
            x1="184"
            y1="168"
            x2="258"
            y2="168"/>
      <line vector-effect="non-scaling-stroke"
            x1="258"
            y1="168"
            x2="310"
            y2="168"/>
      <line vector-effect="non-scaling-stroke"
            x1="310"
            y1="168"
            x2="475"
            y2="168"/>
      <line vector-effect="non-scaling-stroke"
            x1="0"
            y1="84"
            x2="0"
            y2="121"/>
      <line vector-effect="non-scaling-stroke"
            x1="37"
            y1="0"
            x2="37"
            y2="84"/>
      <line vector-effect="non-scaling-stroke"
            x1="37"
            y1="84"
            x2="37"
            y2="121"/>
      <line vector-effect="non-scaling-stroke"
            x1="37"
            y1="121"
            x2="37"
            y2="168"/>
      <line vector-effect="non-scaling-stroke"
            x1="72"
            y1="121"
            x2="72"
            y2="168"/>
      <line vector-effect="non-scaling-stroke"
            x1="109"
            y1="121"
            x2="109"
            y2="168"/>
      <line vector-effect="non-scaling-stroke"
            x1="184"
            y1="121"
            x2="184"
            y2="168"/>
      <line vector-effect="non-scaling-stroke"
            x1="258"
            y1="0"
            x2="258"
            y2="84"/>
      <line vector-effect="non-scaling-stroke"
            x1="258"
            y1="121"
            x2="258"
            y2="168"/>
      <line vector-effect="non-scaling-stroke"
            x1="310"
            y1="121"
            x2="310"
            y2="144"/>
      <line vector-effect="non-scaling-stroke"
            x1="310"
            y1="144"
            x2="310"
            y2="168"/>
      <line vector-effect="non-scaling-stroke"
            x1="333"
            y1="121"
            x2="333"
            y2="144"/>
      <line vector-effect="non-scaling-stroke"
            x1="368"
            y1="0"
            x2="368"
            y2="84"/>
      <line vector-effect="non-scaling-stroke"
            x1="405"
            y1="0"
            x2="405"
            y2="84"/>
      <line vector-effect="non-scaling-stroke"
            x1="439"
            y1="0"
            x2="439"
            y2="84"/>
      <line vector-effect="non-scaling-stroke"
            x1="475"
            y1="0"
            x2="475"
            y2="84"/>
      <line vector-effect="non-scaling-stroke"
            x1="475"
            y1="84"
            x2="475"
            y2="121"/>
      <line vector-effect="non-scaling-stroke"
            x1="475"
            y1="121"
            x2="475"
            y2="168"/>
   </g>
   <g id="decorations" fill="none" stroke="#000">
      <line vector-effect="non-scaling-stroke"
            x1="4"
            y1="102.5"
            x2="37"
            y2="102.5"/>
      <line vector-effect="non-scaling-stroke"
            x1="7.0   "
            y1="102.5"
            x2="7.0   "
            y2="121"/>
      <line vector-effect="non-scaling-stroke"
            x1="10.833"
            y1="102.5"
            x2="10.833"
            y2="121"/>
      <line vector-effect="non-scaling-stroke"
            x1="14.666"
            y1="102.5"
            x2="14.666"
            y2="121"/>
      <line vector-effect="non-scaling-stroke"
            x1="18.5  "
            y1="102.5"
            x2="18.5  "
            y2="121"/>
      <line vector-effect="non-scaling-stroke"
            x1="22.333"
            y1="102.5"
            x2="22.333"
            y2="121"/>
      <line vector-effect="non-scaling-stroke"
            x1="26.166"
            y1="102.5"
            x2="26.166"
            y2="121"/>
      <line vector-effect="non-scaling-stroke"
            x1="30.0  "
            y1="102.5"
            x2="30.0  "
            y2="121"/>
      <line vector-effect="non-scaling-stroke"
            x1="310"
            y1="121"
            x2="333"
            y2="144"/>
      <line vector-effect="non-scaling-stroke"
            x1="310"
            y1="144"
            x2="333"
            y2="121"/>
      <line vector-effect="non-scaling-stroke"
            x1="457"
            y1="12"
            x2="457"
            y2="72"/>
      <line vector-effect="non-scaling-stroke"
            x1="439"
            y1="17.0  "
            x2="475"
            y2="17.0  "/>
      <line vector-effect="non-scaling-stroke"
            x1="439"
            y1="21.545"
            x2="475"
            y2="21.545"/>
      <line vector-effect="non-scaling-stroke"
            x1="439"
            y1="26.090"
            x2="475"
            y2="26.090"/>
      <line vector-effect="non-scaling-stroke"
            x1="439"
            y1="30.636"
            x2="475"
            y2="30.636"/>
      <line vector-effect="non-scaling-stroke"
            x1="439"
            y1="35.181"
            x2="475"
            y2="35.181"/>
      <line vector-effect="non-scaling-stroke"
            x1="439"
            y1="39.727"
            x2="475"
            y2="39.727"/>
      <line vector-effect="non-scaling-stroke"
            x1="439"
            y1="44.272"
            x2="475"
            y2="44.272"/>
      <line vector-effect="non-scaling-stroke"
            x1="439"
            y1="48.818"
            x2="475"
            y2="48.818"/>
      <line vector-effect="non-scaling-stroke"
            x1="439"
            y1="53.363"
            x2="475"
            y2="53.363"/>
      <line vector-effect="non-scaling-stroke"
            x1="439"
            y1="57.909"
            x2="475"
            y2="57.909"/>
      <line vector-effect="non-scaling-stroke"
            x1="439"
            y1="62.454"
            x2="475"
            y2="62.454"/>
      <line vector-effect="non-scaling-stroke"
            x1="439"
            y1="67.0  "
            x2="475"
            y2="67.0  "/>
   </g>
</svg>
