<svg xmlns="http://www.w3.org/2000/svg" viewBox="0 0 319 212">
   <g id="areas" fill="#ccc">
      <g class="area" shortid="0_0" areaname="女子トイレ">
         <polygon points="0,0 37,0 37,61 0,61"/>
         <g class="wrap" transform="translate(0,0)" width="37" height="61"/>
      </g>
      <g class="area" shortid="37_0" areaname="男子トイレ">
         <polygon points="37,0 73,0 73,61 37,61"/>
         <g class="wrap" transform="translate(37,0)" width="36" height="61"/>
      </g>
      <g class="area" shortid="110_0" areaname="専攻科講義室A">
         <polygon points="110,0 215,0 215,107 110,107"/>
         <g class="wrap"
            transform="translate(110,0)"
            width="105"
            height="107"/>
      </g>
      <g class="area" shortid="215_0" areaname="専攻科講義室B">
         <polygon points="215,0 319,0 319,107 215,107"/>
         <g class="wrap"
            transform="translate(215,0)"
            width="104"
            height="107"/>
      </g>
      <g class="area" shortid="146_152" areaname="米村教員室">
         <polygon points="146,152 185,152 185,212 146,212"/>
         <g class="wrap"
            transform="translate(146,152)"
            width="39"
            height="60"/>
      </g>
      <g class="area" shortid="185_152" areaname="専攻科ゼミ室C">
         <polygon points="185,152 237,152 237,212 185,212"/>
         <g class="wrap"
            transform="translate(185,152)"
            width="52"
            height="60"/>
      </g>
      <g class="area" shortid="237_152" areaname="コミュニティルームH">
         <polygon points="237,152 285,152 285,212 237,212"/>
         <g class="wrap"
            transform="translate(237,152)"
            width="48"
            height="60"/>
      </g>
   </g>
   <g id="lines" stroke="#000">
      <line x1="0" y1="0" x2="37" y2="0"/>
      <line x1="37" y1="0" x2="73" y2="0"/>
      <line x1="73" y1="0" x2="110" y2="0"/>
      <line x1="110" y1="0" x2="215" y2="0"/>
      <line x1="215" y1="0" x2="319" y2="0"/>
      <line x1="0" y1="61" x2="37" y2="61"/>
      <line x1="37" y1="61" x2="73" y2="61"/>
      <line x1="0" y1="77" x2="30" y2="77"/>
      <line x1="53" y1="77" x2="73" y2="77"/>
      <line x1="73" y1="84" x2="90" y2="84"/>
      <line x1="0" y1="107" x2="30" y2="107"/>
      <line x1="53" y1="107" x2="73" y2="107"/>
      <line x1="73" y1="107" x2="90" y2="107"/>
      <line x1="90" y1="107" x2="110" y2="107"/>
      <line x1="110" y1="107" x2="215" y2="107"/>
      <line x1="215" y1="107" x2="319" y2="107"/>
      <line x1="146" y1="152" x2="185" y2="152"/>
      <line x1="185" y1="152" x2="237" y2="152"/>
      <line x1="237" y1="152" x2="285" y2="152"/>
      <line x1="285" y1="152" x2="319" y2="152"/>
      <line x1="0" y1="174" x2="110" y2="174"/>
      <line x1="110" y1="212" x2="146" y2="212"/>
      <line x1="146" y1="212" x2="185" y2="212"/>
      <line x1="185" y1="212" x2="237" y2="212"/>
      <line x1="237" y1="212" x2="285" y2="212"/>
      <line x1="285" y1="212" x2="319" y2="212"/>
      <line x1="0" y1="0" x2="0" y2="61"/>
      <line x1="0" y1="61" x2="0" y2="77"/>
      <line x1="0" y1="77" x2="0" y2="107"/>
      <line x1="0" y1="107" x2="0" y2="174"/>
      <line x1="30" y1="77" x2="30" y2="107"/>
      <line x1="37" y1="0" x2="37" y2="61"/>
      <line x1="53" y1="77" x2="53" y2="107"/>
      <line x1="73" y1="0" x2="73" y2="61"/>
      <line x1="73" y1="61" x2="73" y2="77"/>
      <line x1="73" y1="77" x2="73" y2="84"/>
      <line x1="73" y1="84" x2="73" y2="107"/>
      <line x1="90" y1="84" x2="90" y2="107"/>
      <line x1="110" y1="0" x2="110" y2="107"/>
      <line x1="110" y1="174" x2="110" y2="212"/>
      <line x1="146" y1="152" x2="146" y2="212"/>
      <line x1="185" y1="152" x2="185" y2="212"/>
      <line x1="215" y1="0" x2="215" y2="107"/>
      <line x1="237" y1="152" x2="237" y2="212"/>
      <line x1="285" y1="152" x2="285" y2="212"/>
      <line x1="319" y1="0" x2="319" y2="107"/>
      <line x1="319" y1="107" x2="319" y2="152"/>
      <line x1="319" y1="152" x2="319" y2="212"/>
   </g>
   <g id="decorations" fill="none" stroke="#000">
      <line x1="0" y1="77" x2="30" y2="107"/>
      <line x1="0" y1="107" x2="30" y2="77"/>
      <line x1="53" y1="77" x2="73" y2="107"/>
      <line x1="53" y1="107" x2="73" y2="77"/>
      <line x1="73" y1="84" x2="90" y2="107"/>
      <line x1="73" y1="107" x2="90" y2="84"/>
      <line x1="91.5" y1="12" x2="91.5" y2="72"/>
      <line x1="73" y1="16.0  " x2="110" y2="16.0  "/>
      <line x1="73" y1="20.727" x2="110" y2="20.727"/>
      <line x1="73" y1="25.454" x2="110" y2="25.454"/>
      <line x1="73" y1="30.181" x2="110" y2="30.181"/>
      <line x1="73" y1="34.909" x2="110" y2="34.909"/>
      <line x1="73" y1="39.636" x2="110" y2="39.636"/>
      <line x1="73" y1="44.363" x2="110" y2="44.363"/>
      <line x1="73" y1="49.090" x2="110" y2="49.090"/>
      <line x1="73" y1="53.818" x2="110" y2="53.818"/>
      <line x1="73" y1="58.545" x2="110" y2="58.545"/>
      <line x1="73" y1="63.272" x2="110" y2="63.272"/>
      <line x1="73" y1="68.0  " x2="110" y2="68.0  "/>
      <line x1="302" y1="162" x2="302" y2="202"/>
      <line x1="285" y1="167" x2="319" y2="167"/>
      <line x1="285" y1="172" x2="319" y2="172"/>
      <line x1="285" y1="177" x2="319" y2="177"/>
      <line x1="285" y1="182" x2="319" y2="182"/>
      <line x1="285" y1="187" x2="319" y2="187"/>
      <line x1="285" y1="192" x2="319" y2="192"/>
      <line x1="285" y1="197" x2="319" y2="197"/>
   </g>
</svg>
